HIERARCHY
ROOT Hips
{
	OFFSET 0.00000 0.00000 0.00000
	CHANNELS 6 Xposition Yposition Zposition Zrotation Yrotation Xrotation 
	JOINT LHipJoint
	{
		OFFSET 0 0 0
		CHANNELS 3 Zrotation Yrotation Xrotation
		JOINT LeftUpLeg
		{
			OFFSET 1.75344 -1.53157 0.77399
			CHANNELS 3 Zrotation Yrotation Xrotation
			JOINT LeftLeg
			{
				OFFSET 2.25415 -6.19323 0.00000
				CHANNELS 3 Zrotation Yrotation Xrotation
				JOINT LeftFoot
				{
					OFFSET 2.30342 -6.32861 0.00000
					CHANNELS 3 Zrotation Yrotation Xrotation
					JOINT LeftToeBase
					{
						OFFSET 0.10958 -0.30108 1.49206
						CHANNELS 3 Zrotation Yrotation Xrotation
						End Site
						{
							OFFSET 0.00000 -0.00000 0.77783
						}
					}
				}
			}
		}
	}
	JOINT RHipJoint
	{
		OFFSET 0 0 0
		CHANNELS 3 Zrotation Yrotation Xrotation
		JOINT RightUpLeg
		{
			OFFSET -1.81912 -1.53156 0.77399
			CHANNELS 3 Zrotation Yrotation Xrotation
			JOINT RightLeg
			{
				OFFSET -2.22882 -6.12365 0.00000
				CHANNELS 3 Zrotation Yrotation Xrotation
				JOINT RightFoot
				{
					OFFSET -2.21943 -6.09785 0.00000
					CHANNELS 3 Zrotation Yrotation Xrotation
					JOINT RightToeBase
					{
						OFFSET -0.18931 -0.52012 1.59379
						CHANNELS 3 Zrotation Yrotation Xrotation
						End Site
						{
							OFFSET -0.00000 -0.00000 0.84686
						}
					}
				}
			}
		}
	}
	JOINT LowerBack
	{
		OFFSET 0 0 0
		CHANNELS 3 Zrotation Yrotation Xrotation
		JOINT Spine
		{
			OFFSET -0.00200 1.66634 -0.14248
			CHANNELS 3 Zrotation Yrotation Xrotation
			JOINT Spine1
			{
				OFFSET -0.00875 1.64542 0.09514
				CHANNELS 3 Zrotation Yrotation Xrotation
				JOINT Neck
				{
					OFFSET 0 0 0
					CHANNELS 3 Zrotation Yrotation Xrotation
					JOINT Neck1
					{
						OFFSET 0.02257 1.59605 0.00839
						CHANNELS 3 Zrotation Yrotation Xrotation
						JOINT Head
						{
							OFFSET -0.10214 1.57530 -0.23335
							CHANNELS 3 Zrotation Yrotation Xrotation
							End Site
							{
								OFFSET -0.03588 1.60717 -0.08062
							}
						}
					}
				}
				JOINT LeftShoulder
				{
					OFFSET 0 0 0
					CHANNELS 3 Zrotation Yrotation Xrotation
					JOINT LeftArm
					{
						OFFSET 2.54983 1.10186 0.40078
						CHANNELS 3 Zrotation Yrotation Xrotation
						JOINT LeftForeArm
						{
							OFFSET 4.28840 -0.00000 0.00000
							CHANNELS 3 Zrotation Yrotation Xrotation
							JOINT LeftHand
							{
								OFFSET 3.06552 -0.00000 -0.00000
								CHANNELS 3 Zrotation Yrotation Xrotation
								JOINT LeftFingerBase
								{
									OFFSET 0 0 0
									CHANNELS 3 Zrotation Yrotation Xrotation
									JOINT LeftHandIndex1
									{
										OFFSET 0.75304 -0.00000 0.00000
										CHANNELS 3 Zrotation Yrotation Xrotation
										End Site
										{
											OFFSET 0.60712 -0.00000 0.00000
										}
									}
								}
								JOINT LThumb
								{
									OFFSET 0 0 0
									CHANNELS 3 Zrotation Yrotation Xrotation
									End Site
									{
										OFFSET 0.61639 -0.00000 0.61639
									}
								}
							}
						}
					}
				}
				JOINT RightShoulder
				{
					OFFSET 0 0 0
					CHANNELS 3 Zrotation Yrotation Xrotation
					JOINT RightArm
					{
						OFFSET -2.60909 1.35448 0.21802
						CHANNELS 3 Zrotation Yrotation Xrotation
						JOINT RightForeArm
						{
							OFFSET -4.52172 -0.00000 -0.00000
							CHANNELS 3 Zrotation Yrotation Xrotation
							JOINT RightHand
							{
								OFFSET -2.89140 -0.00000 0.00000
								CHANNELS 3 Zrotation Yrotation Xrotation
								JOINT RightFingerBase
								{
									OFFSET 0 0 0
									CHANNELS 3 Zrotation Yrotation Xrotation
									JOINT RightHandIndex1
									{
										OFFSET -0.68054 -0.00000 0.00000
										CHANNELS 3 Zrotation Yrotation Xrotation
										End Site
										{
											OFFSET -0.54867 -0.00000 0.00000
										}
									}
								}
								JOINT RThumb
								{
									OFFSET 0 0 0
									CHANNELS 3 Zrotation Yrotation Xrotation
									End Site
									{
										OFFSET -0.55705 -0.00000 0.55705
									}
								}
							}
						}
					}
				}
			}
		}
	}
}
MOTION
Frames: 5
Frame Time: .0083333
8.7147 15.5092 21.9873 -179.5290 3.5669 183.0880 0.0000 0.0000 0.0000 -25.1985 -23.0566 2.7502 1.4592 7.6348 21.6101 0.8623 16.3073 -29.9555 3.2423 -11.0773 -32.5410 0.0000 0.0000 0.0000 25.8388 21.4392 6.7127 -0.7794 -5.6364 15.7331 0.9876 -24.0762 -26.9579 -0.0374 1.2478 -3.4309 0.7833 0.1780 7.3893 0.3305 0.4420 -4.5150 -0.1618 0.2158 -8.9298 -5.5398 -1.2922 -12.7823 6.0964 -1.4458 16.8739 2.7879 -0.3483 7.3682 -0.0000 -0.0000 0.0000 -68.3734 18.8108 5.5304 15.4458 -24.7634 -3.4105 -0.0000 -0.0000 23.8855 -7.4937 -25.0281 3.1852 -7.1250 0.0000 -0.0000 -22.1901 6.2052 21.3734 -0.0000 -0.0000 0.0000 65.2374 -21.2687 26.0870 -15.4681 24.7942 -3.4199 0.0000 0.0000 25.9104 7.5751 -54.0489 -6.1445 7.1250 -0.0000 -0.0000 79.3919 -69.0287 -56.5842
8.7161 15.5133 21.9924 -179.5510 3.6454 183.1650 0.0000 0.0000 0.0000 -25.1334 -22.9649 2.5823 1.4589 7.6341 21.6080 0.8572 16.2544 -29.8658 3.2296 -11.0577 -32.4748 0.0000 0.0000 0.0000 25.7551 21.4090 6.5613 -0.7788 -5.6344 15.7271 0.9866 -24.0037 -26.8305 -0.0397 1.2868 -3.5382 0.7200 0.2007 7.4274 0.3063 0.4617 -4.4953 -0.1550 0.2276 -8.9307 -5.4577 -1.2883 -12.6395 6.0442 -1.4550 16.6615 2.7520 -0.3583 7.2734 -0.0000 0.0000 0.0000 -67.7131 18.8686 5.1051 15.4727 -24.8005 -3.4218 -0.0000 -0.0000 23.7774 -6.5337 -25.7725 2.8509 -7.1250 0.0000 -0.0000 -21.5984 5.4910 21.0214 -0.0000 0.0000 0.0000 64.6952 -21.4928 26.2841 -15.5718 24.9366 -3.4634 0.0000 0.0000 25.8305 8.3583 -54.1036 -6.7874 7.1250 -0.0000 -0.0000 79.9280 -68.7798 -56.7905
8.7172 15.5155 21.9966 -179.5590 3.7739 183.2670 0.0000 0.0000 0.0000 -25.0766 -22.9264 2.4326 1.4594 7.6353 21.6117 0.8834 16.1401 -29.9235 3.1458 -10.9274 -32.0356 0.0000 0.0000 0.0000 25.6866 21.4958 6.4404 -0.7772 -5.6286 15.7105 0.9178 -23.7512 -26.9458 -0.0202 0.9175 -2.5217 0.6818 0.2303 7.4245 0.2869 0.4944 -4.4838 -0.1589 0.2448 -8.9163 -5.3438 -1.2647 -12.4447 5.9561 -1.4382 16.4179 2.7011 -0.3580 7.1575 -0.0000 -0.0000 0.0000 -67.0019 19.1369 5.1979 15.5996 -24.9748 -3.4752 -0.0000 -0.0000 23.1693 -6.1639 -25.9036 2.7012 -7.1250 0.0000 -0.0000 -21.3823 5.3594 20.8331 -0.0000 -0.0000 0.0000 64.1537 -21.6240 26.3944 -15.5645 24.9266 -3.4604 0.0000 0.0000 25.9224 9.2404 -54.1479 -7.5119 7.1250 -0.0000 -0.0000 80.4885 -68.4964 -56.9772
8.7173 15.5157 21.9997 -179.4960 3.8811 183.3350 0.0000 0.0000 0.0000 -24.9685 -22.8918 2.3172 1.4618 7.6414 21.6300 0.8783 16.1548 -29.9045 3.1212 -10.8887 -31.9056 0.0000 0.0000 0.0000 25.6964 21.4958 6.3353 -0.7746 -5.6195 15.6842 0.8756 -23.5476 -26.9296 -0.0173 0.8491 -2.3338 0.7374 0.2390 7.4565 0.3093 0.5118 -4.4431 -0.1689 0.2498 -8.8904 -5.3371 -1.2751 -12.3107 5.8648 -1.4476 16.1614 2.6645 -0.3784 7.0508 0.0000 -0.0000 0.0000 -66.3398 19.3783 5.2789 15.6622 -25.0605 -3.5017 -0.0000 -0.0000 22.6623 -6.0935 -26.0430 2.6835 -7.1250 0.0000 -0.0000 -21.3340 5.2269 20.8357 0.0000 -0.0000 0.0000 63.5455 -21.6707 26.6248 -15.5379 24.8901 -3.4492 0.0000 0.0000 25.8905 10.1373 -54.3615 -8.2678 7.1250 -0.0000 -0.0000 81.4605 -68.2495 -57.6220
8.7185 15.5170 22.0042 -179.4270 3.9975 183.3810 0.0000 0.0000 0.0000 -24.8325 -22.7784 2.1569 1.4691 7.6595 21.6846 0.8707 16.1477 -29.8456 3.1592 -10.9483 -32.1059 0.0000 0.0000 0.0000 25.7188 21.4491 6.2473 -0.7684 -5.5975 15.6208 0.8903 -23.4928 -26.7050 -0.0262 1.0449 -2.8724 0.7514 0.2489 7.5327 0.3470 0.5263 -4.3832 -0.1390 0.2559 -8.8703 -5.2824 -1.2832 -12.1149 5.6981 -1.4542 15.8054 2.5943 -0.4038 6.9006 -0.0000 -0.0000 0.0000 -65.8073 19.5274 4.6873 15.5149 -24.8586 -3.4395 -0.0000 -0.0000 23.3727 -4.8073 -27.5876 2.2304 -7.1250 0.0000 -0.0000 -20.5299 3.7357 20.5385 -0.0000 -0.0000 0.0000 62.9069 -21.7310 27.0761 -15.5697 24.9337 -3.4626 0.0000 0.0000 25.6330 11.0072 -54.5724 -9.0063 7.1250 -0.0000 -0.0000 82.4014 -68.0101 -58.2532
